<?xml version="1.0" encoding="utf-8"?>
<!-- Generator: Adobe Illustrator 18.0.0, SVG Export Plug-In . SVG Version: 6.00 Build 0)  -->
<!DOCTYPE svg PUBLIC "-//W3C//DTD SVG 1.1//EN" "http://www.w3.org/Graphics/SVG/1.1/DTD/svg11.dtd">
<svg version="1.1" id="Layer_1" xmlns="http://www.w3.org/2000/svg" xmlns:xlink="http://www.w3.org/1999/xlink" x="0px" y="0px"
	 viewBox="0 0 379.245 82.075" enable-background="new 0 0 379.245 82.075" xml:space="preserve">
<path fill="#3D3D3D" d="M253.528,71.552c-0.716,0.02-1.053-0.14-1.238-0.796c-0.609-2.166-1.341-4.307-2.013-6.46
	c-4.965-15.919-9.924-31.84-14.909-47.754c-0.1-0.319-0.491-0.808-0.763-0.816c-2.204-0.067-4.412-0.038-6.635-0.038
	c-5.645,18.691-11.257,37.274-16.868,55.855c-1.71,0-2.55-0.05-4.063,0.032c-0.427,0.023-0.823,0.435-1.234,0.669
	c0.409,0.281,0.813,0.799,1.228,0.805c3.779,0.063,6.878,0.063,10.657,0.002c0.431-0.007,1.151-0.46,1.213-0.779
	c0.135-0.696-0.617-0.733-1.258-0.731c-1.535,0.004-3.071,0.001-4.701,0.001c1.596-5.361,3.169-10.554,4.664-15.762
	c0.22-0.768,0.566-0.978,1.467-0.973c5.997,0.033,11.994,0.016,17.991,0.019c0.34,0,0.68,0.035,1.064,0.055
	c1.672,5.548,3.333,11.058,5.022,16.66c-1.646,0-3.163,0.005-4.68-0.002c-0.647-0.003-1.388,0.044-1.257,0.734
	c0.06,0.317,0.78,0.774,1.206,0.778c6.301,0.05,11.946,0.05,18.247-0.002c0.42-0.003,0.834-0.524,1.251-0.804
	c-0.422-0.235-0.826-0.639-1.269-0.672C255.398,71.482,254.787,71.516,253.528,71.552z M218.384,51.337
	c3.171-10.492,6.317-19.025,9.463-29.437c0.077-0.001,0.154-0.003,0.23-0.004c2.54,8.405,5.686,16.941,9.463,29.441H218.384z
	 M355.884,17.276c-0.001-1.414-0.201-1.588-1.867-1.589c-13.911-0.003-27.822-0.003-41.733,0c-1.556,0-1.839,0.233-1.84,1.519
	c-0.005,6.202-0.018,9.886,0.032,16.087c0.004,0.448,0.388,1.186,0.771,1.28c0.819,0.201,1.076-0.439,1.287-1.053
	c2.059-5.996,4.163-9.464,6.213-15.462c0.215-0.63,0.583-0.789,1.29-0.782c2.521,0.025,5.043,0.007,7.564,0.017
	c0.285,0.001,0.57,0.078,0.827,0.116v54.138c-1.621,0-3.141-0.06-4.648,0.037c-0.448,0.029-0.856,0.497-1.282,0.764
	c0.411,0.248,0.82,0.708,1.233,0.711c6.303,0.046,12.607,0.046,18.91,0c0.402-0.003,1.072-0.424,1.144-0.729
	c0.162-0.689-0.528-0.788-1.197-0.784c-1.551,0.009-3.103,0.003-4.698,0.003V17.285c2.834,0,5.604,0.038,8.371-0.022
	c0.661-0.014,1.011,0.144,1.237,0.496c0.001,0.004,0.156,0.383,0.399,0.98c0.317,0.875,0.636,1.648,0.955,2.346
	c1.511,3.711,3.854,9.461,4.802,11.767c0.096,0.257,0.182,0.517,0.282,0.773c0.03,0.076,0.085,0.159,0.14,0.241
	c0,0,0.004,0.01,0.004,0.011l0.001-0.001c0.234,0.344,0.644,0.696,0.961,0.708c0.873,0.034,0.846-0.661,0.845-1.22
	c0-0.074,0.001-0.147,0.001-0.22C355.886,27.015,355.889,23.405,355.884,17.276z M309.269,71.553
	c-0.955,0.082-1.45-0.201-1.877-0.945c-4.885-8.515-9.817-17.011-14.735-25.513c-0.201-0.347-0.385-0.701-0.542-0.988
	c0.12-0.142,0.137-0.184,0.171-0.2c0.375-0.179,0.756-0.348,1.129-0.53c3.918-1.924,6.91-4.568,7.649-8.42
	c0.493-2.572,0.464-5.255,0.297-7.871c-0.366-5.757-6.443-11.041-13.251-11.227c-9.116-0.249-18.246-0.148-27.37-0.145
	c-0.429,0-0.858,0.513-1.288,0.786c0.449,0.258,0.88,0.706,1.349,0.737c1.467,0.097,2.948,0.035,4.549,0.035v54.266
	c-1.629,0-1.991-0.053-3.5,0.033c-0.435,0.025-0.837,0.45-1.255,0.691c0.424,0.273,0.845,0.781,1.272,0.784
	c6.258,0.051,11.359,0.051,17.616,0.002c0.438-0.004,1.171-0.435,1.246-0.754c0.161-0.686-0.568-0.762-1.224-0.759
	c-1.548,0.007-3.095,0.002-4.629,0.002V45.113c2.273,0,4.446,0.054,6.613-0.023c1.035-0.037,1.5,0.266,1.929,1.046
	c3.773,6.858,7.607,13.692,11.42,20.534c0.878,1.576,1.74,3.159,2.68,4.867c-1.645,0-3.11,0.011-4.575-0.005
	c-0.704-0.008-1.438,0.054-1.427,0.774c0.01,0.697,0.726,0.785,1.439,0.781c2.955-0.013,5.911-0.006,8.866-0.006
	c3.347,0,6.694,0.026,10.039-0.035c0.411-0.007,0.81-0.478,1.215-0.734c-0.4-0.258-0.769-0.678-1.208-0.74
	C311.022,71.454,310.129,71.479,309.269,71.553z M284.3,43.611c-3.143,0.032-6.287-0.022-9.43-0.022V17.361
	c0.233-0.029,0.438-0.078,0.644-0.077c4.084,0.022,8.168,0.048,12.251,0.08c1,0.008,2.423,0.466,3.144,1.18
	c1.776,1.757,2.111,4.288,2.287,6.661c0.221,2.98,0.265,5.975,0.095,8.959c-0.158,2.784-0.671,5.585-2.552,7.761
	C289.201,43.705,286.441,43.589,284.3,43.611z"/>
<g>
	<path fill="#3D3D3D" d="M366.672,21.492c-0.2,0.466-0.476,0.874-0.826,1.224c-0.35,0.35-0.758,0.625-1.224,0.825
		c-0.465,0.2-0.963,0.301-1.494,0.301c-0.53,0-1.028-0.1-1.494-0.301c-0.465-0.2-0.873-0.475-1.223-0.825s-0.625-0.758-0.826-1.224
		c-0.201-0.466-0.301-0.964-0.301-1.494c0-0.531,0.1-1.028,0.301-1.494c0.2-0.465,0.476-0.873,0.826-1.223s0.758-0.626,1.223-0.826
		c0.466-0.2,0.964-0.301,1.494-0.301c0.53,0,1.028,0.1,1.494,0.301c0.466,0.2,0.874,0.476,1.224,0.826
		c0.35,0.35,0.625,0.758,0.826,1.223c0.2,0.466,0.301,0.964,0.301,1.494C366.972,20.529,366.872,21.027,366.672,21.492z
		 M366.162,18.73c-0.173-0.398-0.41-0.746-0.709-1.045c-0.299-0.299-0.648-0.536-1.045-0.709c-0.398-0.173-0.824-0.26-1.28-0.26
		c-0.455,0-0.882,0.087-1.28,0.26c-0.398,0.173-0.746,0.409-1.045,0.709c-0.299,0.299-0.535,0.648-0.709,1.045
		c-0.173,0.398-0.26,0.824-0.26,1.28s0.086,0.882,0.26,1.28c0.173,0.398,0.41,0.744,0.709,1.039
		c0.299,0.296,0.648,0.531,1.045,0.704c0.398,0.173,0.824,0.26,1.28,0.26c0.455,0,0.882-0.087,1.28-0.26
		c0.398-0.173,0.746-0.408,1.045-0.704c0.299-0.296,0.535-0.642,0.709-1.039c0.173-0.398,0.26-0.824,0.26-1.28
		S366.335,19.127,366.162,18.73z M364.199,22.14l-1.754-2.04v2.04h-0.663v-4.466h1.499c0.204,0,0.391,0.034,0.561,0.102
		c0.17,0.068,0.316,0.161,0.438,0.28s0.216,0.258,0.28,0.418c0.065,0.16,0.097,0.331,0.097,0.515c0,0.177-0.034,0.344-0.102,0.5
		c-0.068,0.157-0.162,0.292-0.28,0.408c-0.119,0.116-0.255,0.206-0.408,0.27c-0.153,0.064-0.311,0.096-0.474,0.096l1.642,1.876
		H364.199z M363.924,18.735c-0.034-0.082-0.083-0.155-0.148-0.22c-0.065-0.064-0.143-0.117-0.234-0.158
		c-0.092-0.04-0.192-0.061-0.301-0.061h-0.795v1.448h0.714c0.238,0,0.433-0.068,0.586-0.204c0.153-0.136,0.23-0.326,0.23-0.57
		C363.975,18.894,363.958,18.816,363.924,18.735z"/>
</g>
<g>
	<path fill="#3D3D3D" d="M193.482,46.906c1.169-2.909,2.378-5.916,3.512-8.894c0.638-1.678,1.489-2.213,3.42-2.122
		c0.276,0.009,0.567,0.014,0.871,0.014c9.178-0.01,13.129-1.423,14.659-5.315l-15.47-0.095l0.288-0.797
		c0.081-0.235,0.142-0.409,0.22-0.578c0.256-0.553,0.522-1.103,0.787-1.653c0.532-1.108,2.648-4.903,3.113-6.058
		c1.629-4.051-2.848-6.311-6.081-6.834c-0.112,0.009-0.471,0.304-0.56,0.532c-0.213,0.543-0.429,1.084-0.645,1.627
		c-0.569,1.429-1.79,3.975-2.789,6.232l-2.896,7.53h-6.074c-2.208,0.457-5.394,1.978-5.652,3.902c0.011,0.13,0.327,0.49,0.463,0.516
		c1.502,0.183,5.641,0.513,7.135,0.637l1.79,0.155l-0.04,0.292c-0.007,0.054-0.011,0.112-0.017,0.174
		c-0.013,0.165-0.029,0.372-0.098,0.569c0,0-1.299,3.723-1.303,3.734c-0.934,2.679-1.888,5.351-2.857,8.017
		c-2,5.503-4.625,10.077-9.368,13.647c-1.669,1.256-3.393,2.555-5.208,3.653c-2.526,1.527-5.397,3.145-8.362,3.558
		c-2.644,0.368-3.763-0.953-4.064-2.88l-0.013,0.069c-0.035-0.45-0.034-0.927-0.02-1.406c0.002-0.065,0.003-0.129,0.006-0.194
		c0.008-0.194,0.017-0.383,0.03-0.575c0.004-0.062,0.009-0.123,0.014-0.184c0.027-0.346,0.058-0.678,0.096-0.995
		c0.008-0.066,0.014-0.134,0.022-0.199c0.017-0.14,0.034-0.267,0.052-0.398c0.016-0.116,0.031-0.225,0.047-0.331
		c0.014-0.094,0.027-0.185,0.041-0.271c0.027-0.174,0.053-0.333,0.077-0.468c0.061-0.35,0.104-0.562,0.104-0.562l0.647-0.252
		l-0.004,0.021c0.217-0.118,0.444-0.206,0.651-0.272c0.802-0.258,1.61-0.504,2.418-0.752c2.248-0.689,4.574-1.398,6.741-2.352
		c4.244-1.864,7.191-4.425,9.008-7.827c1.385-2.593,2.031-5.785,0.658-8.554c-5.511-11.113-16.418-2.785-21.224,3.913
		c-1.886,2.629-3.273,5.753-4.363,9.816c-0.03,0.124-0.055,0.247-0.081,0.37c-0.053,0.241-0.1,0.488-0.141,0.74
		c-0.199,1.201-0.24,2.171-0.24,2.171l-1.009,1.13l0.005-0.014c-2.136,2.415-4.58,4.86-7.68,7.666
		c-0.925,0.838-3.541,3.107-4.875,2.623c-1.679-0.609-0.769-5.434-0.525-6.835c0.417-2.398,1.253-4.708,2.25-6.921
		c2.046-4.54,4.842-8.68,7.093-13.113c1.576-3.103-0.647-6.698-4.242-6.093c-3.164,0.533-6.374,3.816-8.238,6.093
		c-1.921,2.347-3.489,4.316-4.934,6.199c-1.168,1.519-2.315,3.056-3.461,4.594c-0.801,1.073-1.602,2.148-2.41,3.216
		c-0.5,0.661-1.01,1.314-1.516,1.97c0.239-0.842,0.512-1.688,0.891-2.617c1.04-2.549,2.047-5.111,3.099-7.655
		c0.589-1.423,1.191-2.841,1.82-4.247c1.124-2.51,0.654-4.172-1.522-5.389c-1.351-0.756-3.581-1.661-4.723-0.362
		c-0.809,0.92-1.061,2.917-1.485,4.053c-0.574,1.539-1.162,3.075-1.739,4.613c-0.524,1.398-1.048,2.797-1.566,4.197
		c-0.166,0.446-0.319,0.898-0.473,1.349c-0.632,1.86-1.287,3.785-2.789,5.308c-0.849,0.861-1.68,1.741-2.511,2.623
		c-2.183,2.317-4.66,4.574-7.236,6.549c-0.646,0.495-1.523,1.5-2.289,1.761c-3.444,1.174-1.24-5.779-0.769-6.881
		c1.578-3.69,3.394-7.271,5.224-10.84c1.47-2.869,4.431-6.86,3.479-10.267c-0.528-1.889-4.894-5.245-6.54-2.586
		c-0.228,0.369-0.365,0.798-0.511,1.252c-0.063,0.197-0.126,0.393-0.197,0.585l-0.128,0.348l-0.3-0.216
		c-0.544-0.39-1.07-0.782-1.585-1.168c-2.257-1.692-4.812-3.674-7.825-3.104c-6.341,1.199-10.28,8.14-12.533,13.582
		c-0.785,1.897-1.344,3.878-1.867,5.86c-0.145,0.545-0.137,1.408-0.393,1.889c-0.107,0.201-0.401,0.367-0.588,0.531
		c-4.234,3.726-8.459,7.767-13.197,10.868c-0.673,0.441-1.284,0.664-1.816,0.664c-4.122,0.002-0.781-9.168-0.269-11.055
		c0.563-2.076,1.137-4.149,1.724-6.218c0.107-0.378,0.559-0.682,0.915-0.828c8.17-3.357,13.386-11.461,16.645-19.313
		c1.166-2.809,2.235-5.747,2.763-8.752c0.364-2.072,0.66-4.97-0.862-6.688c-1.925-2.173-5.015-6.045-8.219-3.96
		c-3.183,2.07-4.994,6.441-6.545,9.744c-5.926,12.627-11.346,26.082-13.91,39.833c-0.796,4.268,0.373,9.031,4.501,11.101
		c6.535,3.277,11.771-3.793,15.336-8.199c0.588-0.727,1.18-1.458,1.78-2.187c0.183-0.222,0.409-0.655,0.708-0.731
		c0.041,0.389-0.107,0.797-0.136,1.185c-0.033,0.443-0.015,0.889-0.036,1.332c-0.098,2.083,0.327,5.083,1.68,6.712
		c2.073,2.495,5.358,3.575,8.047,1.454c2.812-2.219,4.892-5.517,6.606-8.51c0.248-0.433,0.44-0.954,0.608-1.502
		c-0.025,1.363,0.186,2.685,0.559,4.07c0.587,2.18,2.2,4.197,4.13,5.355c0.964,0.578,2.332,1.083,3.476,1.061
		c3.432-0.068,8.55-6.21,11.468-10.331c-0.028,0.102-0.121,0.44-0.121,0.44c-0.386,1.405-0.744,2.712-1.1,4.017
		c-0.31,1.137-1.392,3.099-1.096,4.298c0.429,1.737,3.287,2.333,4.788,2.413c2.317,0.124,4.454-5.208,5.324-6.806
		c2.801-5.146,6.978-9.428,10.63-13.961l3.457-4.295l-0.358,1.307c-0.372,1.36-0.748,2.674-1.117,3.961
		c-0.821,2.87-1.597,5.58-2.206,8.334c-0.792,3.578,0.532,8.127,3.58,10.328c6.177,4.46,12.952-5.215,15.822-9.519
		c0,0,0.285-0.423,0.403-0.599c-0.185,0.762,0.137,1.954,0.289,2.712c0.185,0.923,0.456,1.819,0.84,2.679
		c1.513,3.393,5.073,5.936,8.837,5.992c1.223,0.018,2.778-0.08,3.936-0.497c3.432-1.237,6.4-2.93,9.208-5.809
		c1.264-1.296,2.469-2.61,3.743-4c0.565-0.617,1.135-1.238,1.717-1.866l0.661-0.713l-0.178,0.956
		c-0.06,0.321-0.121,0.632-0.182,0.936c-0.129,0.646-0.251,1.258-0.334,1.873c-0.59,4.39,1.559,7.91,6.09,8.722
		c5.318,0.953,8.893-3.287,11.612-7.164c1.615-2.303,3.434-4.649,4.675-7.181c0.167-0.341-0.077-2.095,0.094-2.431l-0.061-0.049
		c-0.098,0.081-0.197,0.162-0.297,0.242c-1.597,1.292-2.779,2.994-4.209,4.453c-1.499,1.528-3.119,2.964-4.794,4.295
		c-0.984,0.782-2.005,1.52-3.069,2.189c-0.782,0.491-2.298,1.522-3.261,1.279c-2.855-0.722,2.526-13.547,3.183-15.251
		C191.563,51.66,192.526,49.284,193.482,46.906z M160.049,56.787c0.267-0.837,0.702-1.637,1.07-2.421
		c0.504-1.074,1.032-2.137,1.606-3.175c1.264-2.285,2.823-4.414,4.731-6.203c1.366-1.281,6.075-5.274,6.629-1.411
		c0.494,3.446-2.197,6.249-4.654,8.237c-2.485,2.01-5.581,4.305-8.528,5.593c-0.13,0.057-1.085,0.468-1.088,0.495
		C159.849,57.521,159.933,57.15,160.049,56.787z M67.582,43.935c0.449-1.131,0.906-2.259,1.375-3.382
		c0.853-2.042,1.745-4.068,2.688-6.07c2.254-4.789,4.794-9.436,7.37-14.057l0.273-0.49c0,0,0.23,0.512,0.23,0.513
		c2.541,5.665-2.57,13.345-5.378,18.069c-0.481,0.809-0.982,1.607-1.509,2.387c-0.505,0.749-1.028,1.485-1.587,2.195
		c-0.61,0.776-1.271,1.514-1.992,2.188c-0.588,0.55-1.216,1.056-1.882,1.509c-0.348,0.236-0.657,0.584-1.009,0.759
		C66.495,46.336,67.114,45.116,67.582,43.935z M97.84,50.974c-0.331,0.596-0.671,1.193-1.021,1.779
		c-0.259,0.434-0.524,0.866-0.794,1.294c-1.836,2.915-3.904,5.689-6.088,8.349c-0.683,0.832-5.083,7.437-6.618,4.79
		c-0.399-0.688-0.068-1.864,0.061-2.578c0.203-1.125,0.514-2.227,0.8-3.334c0.749-2.897,1.866-5.705,3.312-8.324
		c2.242-4.058,4.981-8.555,9.12-10.552c0.748-0.362,1.45-0.537,2.147-0.538c0.763,0,3.513,0.457,3.457,1.558
		c-0.015,0.296-1.01,1.602-1.198,1.964C100.035,47.273,98.877,49.105,97.84,50.974z M114.792,60.378
		c-0.153,0.063-0.169-0.026,0.13-0.473C114.922,59.904,114.824,60.261,114.792,60.378z"/>
	<path fill="#3D3D3D" d="M65.299,24.368c0.504-2.122,0.913-4.557-0.624-6.601c-1.889-2.51-4.1-4.843-6.958-7.339
		c-2.753-2.407-5.988-3.601-10.18-3.763c-4.485-0.156-8.865,0.631-12.956,2.37c-3.398,1.446-6.81,3.353-10.143,5.67
		c-2.404,1.671-4.653,3.928-6.877,6.9c-2.869,3.836-4.622,7.466-5.517,11.421c-0.422,1.864-0.128,3.443,0.872,4.695
		c1.425,1.783,3.84,2.368,5.542,2.305c-0.274-3.327,0.539-6.842,2.418-10.454c2.446-4.706,5.91-8.52,10.295-11.339
		c5.108-3.283,10.566-5.126,16.221-5.477c4.045-0.251,7.281,0.45,10.055,2.159C59.21,16,59.763,18.38,59.093,21.99
		c-0.445,2.4-1.428,4.904-3.093,7.878c-1.688,3.018-3.962,5.909-7.158,9.099c-2.988,2.986-6.665,5.4-11.574,7.599
		c-0.947,0.425-1.943,0.74-2.997,1.072c-0.516,0.163-1.056,0.334-1.627,0.529l-0.554,0.188l0.199-0.552
		c0.253-0.701,0.484-1.356,0.704-1.98c0.453-1.288,0.845-2.401,1.294-3.518c1.177-2.932,2.368-5.857,3.559-8.783
		c1.07-2.63,2.14-5.259,3.201-7.892c0.436-1.084,0.412-2.068-0.075-3.006c-0.926-1.792-2.452-2.356-4.068-2.819
		c-0.291-0.083-0.526-0.123-0.719-0.123c-0.452,0-0.783,0.193-1.139,1.189c-0.632,1.765-1.31,3.547-1.965,5.268
		c-0.698,1.834-1.421,3.731-2.087,5.612c-1.41,3.982-2.805,8.063-4.155,12.01c-0.577,1.686-1.155,3.376-1.739,5.073l-0.073,0.213
		l-0.224-0.025c-0.593-0.063-1.936-0.285-3.359-0.516c-1.252-0.206-2.543-0.418-3.297-0.518c0.051,1.541,0.552,2.83,1.43,3.654
		c0.231,0.218,0.827,0.532,1.404,0.838c1.313,0.692,2.552,1.346,2.378,2.083c-0.233,0.985-0.516,2.141-0.819,3.38
		c-0.859,3.511-1.833,7.49-2.328,10.239c-0.29,1.614,0.033,3.085,0.911,4.139c0.724,0.871,1.76,1.375,2.935,1.433
		c0.736-2.363,1.56-5.089,2.397-7.861c1.194-3.951,2.427-8.035,3.468-11.262c0.17-0.527,0.865-1.121,1.403-1.198
		c6.138-0.878,12.091-3.374,18.199-7.632c3.783-2.637,7.114-5.885,9.901-9.651C62.515,31.978,64.381,28.235,65.299,24.368z"/>
</g>
</svg>
